<svg width="308.98" height="547.018" viewBox="-2 -2 308.98 547.018" xmlns="http://www.w3.org/2000/svg">
    <g id="svgGroup" stroke-linecap="round" fill-rule="nonzero" fill="#ffffff" stroke="#000000" stroke-width="0.5">
        <path d="M131.396 112.793L131.396 112.793Q143.408 118.945 160.693 160.840L160.693 160.840Q173.145 185.889 177.832 191.455L177.832 191.455Q186.768 182.080 201.855 174.902L201.855 174.902Q200.244 159.668 201.855 139.746L201.855 139.746Q253.271 140.918 301.465 141.064L301.465 141.064Q304.395 145.898 302.490 226.465L302.490 226.465Q303.369 248.584 303.369 338.232L303.369 338.232Q304.980 359.473 304.980 382.910L304.980 382.910Q304.980 393.311 291.943 400.342L291.943 400.342L268.945 410.303Q258.398 439.600 237.158 451.904L237.158 451.904Q212.109 467.725 176.953 465.820L176.953 465.820Q160.547 462.891 146.924 446.631L146.924 446.631Q141.797 442.822 124.658 417.773L124.658 417.773Q114.844 443.115 92.871 464.063L92.871 464.063Q66.650 479.883 59.326 479.883L59.326 479.883Q22.559 486.035 13.770 474.609L13.770 474.609Q6.738 469.775 3.369 437.842L3.369 437.842Q0 367.236 2.637 305.859L2.637 305.859Q4.541 267.188 9.521 224.707L9.521 224.707Q10.693 208.447 41.309 196.729L41.309 196.729Q41.602 176.074 43.506 164.941L43.506 164.941Q67.090 144.434 131.396 112.793ZM60.205 175.635Q56.689 290.918 58.447 400.342L58.447 400.342Q78.809 389.941 133.154 374.121L133.154 374.121Q133.154 366.504 130.591 326.367Q128.027 286.230 123.779 258.838L123.779 258.838Q137.109 277.002 170.068 321.680L170.068 321.680Q193.213 353.906 226.904 407.373L226.904 407.373Q283.887 387.891 287.842 381.152L287.842 381.152Q286.963 353.906 286.963 346.143L286.963 346.143L286.963 317.285Q286.670 246.387 285.205 229.834L285.205 229.834Q285.205 217.529 285.205 187.720Q285.205 157.910 284.473 156.152L284.473 156.152Q257.520 156.152 217.383 155.859L217.383 155.859Q218.262 199.365 217.822 221.265Q217.383 243.164 218.262 281.396L218.262 281.396Q207.275 266.162 194.385 248.877L194.385 248.877Q161.426 206.250 136.230 147.070L136.230 147.070Q131.689 135.352 128.174 131.982L128.174 131.982Q72.510 160.986 60.205 175.635L60.205 175.635Z" />
    </g>
</svg>